<svg xmlns="http://www.w3.org/2000/svg" xmlns:xlink="http://www.w3.org/1999/xlink" width="500" zoomAndPan="magnify" viewBox="0 0 375 374.999991" height="500" preserveAspectRatio="xMidYMid meet" version="1.0"><defs><clipPath id="id1"><path d="M 12.226562 107.511719 L 362.476562 107.511719 L 362.476562 267.261719 L 12.226562 267.261719 Z M 12.226562 107.511719 " clip-rule="nonzero"/></clipPath></defs><path fill="#39a7df" d="M 225.222656 137.378906 C 213.441406 150.753906 206.289062 168.316406 206.289062 187.558594 L 168.421875 187.558594 C 147.511719 187.558594 130.550781 204.539062 130.550781 225.496094 L 130.550781 263.429688 L 244.160156 263.429688 L 244.160156 187.558594 C 244.152344 168.324219 237 150.761719 225.222656 137.378906 Z M 225.222656 137.378906 " fill-opacity="1" fill-rule="nonzero"/><path fill="#41b883" d="M 168.421875 187.558594 L 206.289062 187.558594 C 206.289062 168.316406 213.441406 150.753906 225.222656 137.378906 C 211.34375 121.628906 191.042969 111.683594 168.421875 111.683594 C 126.59375 111.683594 92.691406 145.65625 92.691406 187.550781 L 58.125 187.550781 C 35.382812 187.550781 16.953125 206.015625 16.953125 228.796875 L 16.953125 263.425781 L 130.550781 263.425781 L 130.550781 225.488281 C 130.550781 204.546875 147.503906 187.558594 168.421875 187.558594 Z M 168.421875 187.558594 " fill-opacity="1" fill-rule="nonzero"/><path fill="#2f2d7e" d="M 281.488281 111.691406 C 258.863281 111.691406 238.5625 121.628906 224.6875 137.386719 C 236.464844 150.761719 243.617188 168.324219 243.617188 187.566406 L 243.617188 263.429688 L 357.21875 263.429688 L 357.21875 187.558594 C 357.21875 145.660156 323.316406 111.691406 281.488281 111.691406 Z M 281.488281 111.691406 " fill-opacity="1" fill-rule="nonzero"/><g clip-path="url(#id1)"><path fill="#161718" d="M 282.023438 107.320312 C 259.839844 107.320312 239.738281 116.402344 225.222656 131.050781 C 210.703125 116.402344 190.605469 107.320312 168.421875 107.320312 C 125.722656 107.320312 90.71875 140.972656 88.441406 183.1875 L 58.125 183.1875 C 33.019531 183.1875 12.589844 203.652344 12.589844 228.804688 L 12.589844 263.429688 C 12.589844 265.847656 14.539062 267.800781 16.953125 267.800781 L 357.753906 267.800781 C 360.164062 267.800781 362.113281 265.847656 362.113281 263.429688 L 362.113281 187.558594 C 362.113281 143.3125 326.1875 107.320312 282.023438 107.320312 Z M 21.3125 228.804688 C 21.3125 208.46875 37.824219 191.925781 58.125 191.925781 L 92.691406 191.925781 C 95.101562 191.925781 97.050781 189.972656 97.050781 187.558594 C 97.050781 148.128906 129.070312 116.050781 168.429688 116.050781 C 188.386719 116.050781 206.453125 124.304688 219.417969 137.574219 C 209.335938 150.230469 202.980469 166 202.058594 183.1875 L 168.429688 183.1875 C 145.144531 183.1875 126.199219 202.167969 126.199219 225.496094 L 126.199219 259.0625 L 21.3125 259.0625 Z M 134.914062 259.0625 L 134.914062 225.496094 C 134.914062 206.984375 149.945312 191.925781 168.421875 191.925781 L 206.289062 191.925781 C 208.703125 191.925781 210.652344 189.972656 210.652344 187.558594 C 210.652344 171.320312 216.082031 156.328125 225.222656 144.3125 C 234.359375 156.328125 239.792969 171.320312 239.792969 187.558594 L 239.792969 259.0625 Z M 353.398438 259.0625 L 248.511719 259.0625 L 248.511719 187.558594 C 248.511719 168.675781 241.964844 151.296875 231.035156 137.582031 C 243.996094 124.3125 262.0625 116.058594 282.023438 116.058594 C 321.378906 116.058594 353.398438 148.136719 353.398438 187.566406 Z M 353.398438 259.0625 " fill-opacity="1" fill-rule="nonzero"/></g></svg>