<svg xmlns="http://www.w3.org/2000/svg" xmlns:xlink="http://www.w3.org/1999/xlink" width="500" zoomAndPan="magnify" viewBox="0 0 375 374.999991" height="500" preserveAspectRatio="xMidYMid meet" version="1.0"><defs><g/><clipPath id="id1"><path d="M 12.226562 69.714844 L 363 69.714844 L 363 229.277344 L 12.226562 229.277344 Z M 12.226562 69.714844 " clip-rule="nonzero"/></clipPath></defs><path fill="#39a7df" d="M 225.597656 99.570312 C 213.796875 112.941406 206.632812 130.5 206.632812 149.734375 L 168.695312 149.734375 C 147.746094 149.734375 130.757812 166.707031 130.757812 187.65625 L 130.757812 225.582031 L 244.570312 225.582031 L 244.570312 149.734375 C 244.5625 130.507812 237.398438 112.949219 225.597656 99.570312 Z M 225.597656 99.570312 " fill-opacity="1" fill-rule="nonzero"/><path fill="#41b883" d="M 168.695312 149.734375 L 206.632812 149.734375 C 206.632812 130.5 213.796875 112.941406 225.597656 99.570312 C 211.695312 83.824219 191.355469 73.882812 168.695312 73.882812 C 126.792969 73.882812 92.828125 107.84375 92.828125 149.726562 L 58.199219 149.726562 C 35.417969 149.726562 16.953125 168.183594 16.953125 190.957031 L 16.953125 225.574219 L 130.757812 225.574219 L 130.757812 187.648438 C 130.757812 166.714844 147.738281 149.734375 168.695312 149.734375 Z M 168.695312 149.734375 " fill-opacity="1" fill-rule="nonzero"/><path fill="#2f2d7e" d="M 281.960938 73.890625 C 259.300781 73.890625 238.964844 83.824219 225.058594 99.578125 C 236.859375 112.949219 244.023438 130.507812 244.023438 149.738281 L 244.023438 225.582031 L 357.828125 225.582031 L 357.828125 149.734375 C 357.828125 107.851562 323.863281 73.890625 281.960938 73.890625 Z M 281.960938 73.890625 " fill-opacity="1" fill-rule="nonzero"/><g clip-path="url(#id1)"><path fill="#161718" d="M 282.5 69.523438 C 260.277344 69.523438 240.140625 78.601562 225.597656 93.246094 C 211.050781 78.601562 190.917969 69.523438 168.695312 69.523438 C 125.917969 69.523438 90.851562 103.164062 88.570312 145.367188 L 58.199219 145.367188 C 33.046875 145.367188 12.585938 165.820312 12.585938 190.964844 L 12.585938 225.582031 C 12.585938 227.996094 14.539062 229.949219 16.953125 229.949219 L 358.367188 229.949219 C 360.78125 229.949219 362.734375 227.996094 362.734375 225.582031 L 362.734375 149.734375 C 362.734375 105.503906 326.742188 69.523438 282.5 69.523438 Z M 21.324219 190.964844 C 21.324219 170.636719 37.863281 154.097656 58.199219 154.097656 L 92.828125 154.097656 C 95.242188 154.097656 97.195312 152.148438 97.195312 149.734375 C 97.195312 110.316406 129.273438 78.25 168.703125 78.25 C 188.695312 78.25 206.796875 86.5 219.78125 99.765625 C 209.679688 112.417969 203.316406 128.179688 202.390625 145.367188 L 168.703125 145.367188 C 145.375 145.367188 126.398438 164.339844 126.398438 187.65625 L 126.398438 221.214844 L 21.324219 221.214844 Z M 135.125 221.214844 L 135.125 187.65625 C 135.125 169.152344 150.183594 154.097656 168.695312 154.097656 L 206.632812 154.097656 C 209.046875 154.097656 211 152.148438 211 149.734375 C 211 133.5 216.441406 118.515625 225.597656 106.503906 C 234.75 118.515625 240.191406 133.5 240.191406 149.734375 L 240.191406 221.214844 Z M 354.003906 221.214844 L 248.929688 221.214844 L 248.929688 149.734375 C 248.929688 130.855469 242.371094 113.484375 231.417969 99.773438 C 244.40625 86.507812 262.503906 78.257812 282.5 78.257812 C 321.925781 78.257812 354.003906 110.324219 354.003906 149.738281 Z M 354.003906 221.214844 " fill-opacity="1" fill-rule="nonzero"/></g><g fill="#161718" fill-opacity="1"><g transform="translate(52.610064, 276.746083)"><g><path d="M 22.304688 0.523438 C 30.066406 0.523438 36.847656 -3.914062 40.175781 -10.433594 L 31.566406 -14.804688 C 29.871094 -11.414062 26.480469 -9.261719 22.304688 -9.261719 C 16.371094 -9.261719 11.933594 -13.632812 11.933594 -19.566406 C 11.933594 -25.5 16.371094 -29.871094 22.304688 -29.871094 C 26.480469 -29.871094 29.871094 -27.71875 31.566406 -24.328125 L 40.175781 -28.695312 C 36.847656 -35.21875 30.066406 -39.652344 22.304688 -39.652344 C 11.152344 -39.652344 2.21875 -30.652344 2.21875 -19.566406 C 2.21875 -8.480469 11.152344 0.523438 22.304688 0.523438 Z M 22.304688 0.523438 "/></g></g></g><g fill="#161718" fill-opacity="1"><g transform="translate(91.530894, 276.746083)"><g><path d="M 22.238281 -21.71875 L 22.238281 -14.085938 L 31.175781 -14.085938 C 29.347656 -11.152344 26.152344 -9.261719 22.304688 -9.261719 C 16.371094 -9.261719 11.933594 -13.632812 11.933594 -19.566406 C 11.933594 -25.5 16.371094 -29.871094 22.304688 -29.871094 C 26.480469 -29.871094 29.871094 -27.71875 31.566406 -24.328125 L 40.175781 -28.695312 C 36.847656 -35.21875 30.066406 -39.652344 22.304688 -39.652344 C 11.152344 -39.652344 2.21875 -30.652344 2.21875 -19.566406 C 2.21875 -8.480469 11.152344 0.523438 22.304688 0.523438 C 33.390625 0.523438 42.394531 -8.480469 42.394531 -19.566406 L 42.394531 -21.71875 Z M 22.238281 -21.71875 "/></g></g></g><g fill="#161718" fill-opacity="1"><g transform="translate(133.256042, 276.746083)"><g><path d="M 22.304688 0.523438 C 33.390625 0.523438 42.394531 -8.480469 42.394531 -19.566406 C 42.394531 -30.652344 33.390625 -39.652344 22.304688 -39.652344 C 11.152344 -39.652344 2.21875 -30.652344 2.21875 -19.566406 C 2.21875 -8.480469 11.152344 0.523438 22.304688 0.523438 Z M 22.304688 -9.261719 C 16.371094 -9.261719 11.933594 -13.632812 11.933594 -19.566406 C 11.933594 -25.5 16.371094 -29.871094 22.304688 -29.871094 C 28.175781 -29.871094 32.609375 -25.5 32.609375 -19.566406 C 32.609375 -13.632812 28.175781 -9.261719 22.304688 -9.261719 Z M 22.304688 -9.261719 "/></g></g></g><g fill="#161718" fill-opacity="1"><g transform="translate(174.981187, 276.746083)"><g><path d="M 3.585938 0 L 17.152344 0 C 27.914062 0 36.71875 -8.738281 36.71875 -19.566406 C 36.71875 -30.390625 27.914062 -39.132812 17.152344 -39.132812 L 3.585938 -39.132812 Z M 13.566406 -8.675781 L 13.566406 -30.457031 L 17.152344 -30.457031 C 22.566406 -30.457031 26.804688 -25.695312 26.804688 -19.566406 C 26.804688 -13.433594 22.566406 -8.675781 17.152344 -8.675781 Z M 13.566406 -8.675781 "/></g></g></g><g fill="#161718" fill-opacity="1"><g transform="translate(211.097702, 276.746083)"><g><path d="M 44.480469 -39.132812 L 38.414062 -13.371094 L 31.5 -39.132812 L 22.4375 -39.132812 L 15.523438 -13.371094 L 9.523438 -39.132812 L -1.042969 -39.132812 L 9.128906 0 L 20.804688 0 L 27 -24.914062 L 33.132812 0 L 44.804688 0 L 55.046875 -39.132812 Z M 44.480469 -39.132812 "/></g></g></g><g fill="#161718" fill-opacity="1"><g transform="translate(262.214016, 276.746083)"><g><path d="M 3.914062 0 L 13.890625 0 L 13.890625 -39.132812 L 3.914062 -39.132812 Z M 3.914062 0 "/></g></g></g><g fill="#161718" fill-opacity="1"><g transform="translate(277.135162, 276.746083)"><g><path d="M 31.695312 -39.132812 L 31.695312 -15.195312 L 14.023438 -39.132812 L 3.585938 -39.132812 L 3.585938 0 L 13.566406 0 L 13.566406 -24 L 31.175781 0 L 41.675781 0 L 41.675781 -39.132812 Z M 31.695312 -39.132812 "/></g></g></g><g fill="#161718" fill-opacity="1"><g transform="translate(15.021477, 300.967245)"><g><path d="M 4.328125 -13.234375 L 5.578125 -8.265625 L 7.015625 -13.234375 L 10.1875 -13.234375 L 10.1875 0 L 7.84375 0 L 7.84375 -3.921875 L 7.953125 -10.109375 L 6.21875 -4.359375 L 4.953125 -4.359375 L 3.390625 -9.875 L 3.5 -3.921875 L 3.5 0 L 1.15625 0 L 1.15625 -13.234375 Z M 4.328125 -13.234375 "/></g></g></g><g fill="#161718" fill-opacity="1"><g transform="translate(28.432258, 300.967245)"><g><path d="M 7.4375 0 C 7.375 -0.125 7.320312 -0.265625 7.28125 -0.421875 C 7.238281 -0.578125 7.203125 -0.742188 7.171875 -0.921875 C 7.023438 -0.765625 6.859375 -0.617188 6.671875 -0.484375 C 6.492188 -0.359375 6.296875 -0.242188 6.078125 -0.140625 C 5.859375 -0.0351562 5.613281 0.0390625 5.34375 0.09375 C 5.082031 0.15625 4.796875 0.1875 4.484375 0.1875 C 3.984375 0.1875 3.519531 0.113281 3.09375 -0.03125 C 2.675781 -0.175781 2.316406 -0.378906 2.015625 -0.640625 C 1.710938 -0.898438 1.472656 -1.210938 1.296875 -1.578125 C 1.128906 -1.941406 1.046875 -2.332031 1.046875 -2.75 C 1.046875 -3.789062 1.429688 -4.59375 2.203125 -5.15625 C 2.972656 -5.726562 4.128906 -6.015625 5.671875 -6.015625 L 7.078125 -6.015625 L 7.078125 -6.59375 C 7.078125 -7.0625 6.921875 -7.429688 6.609375 -7.703125 C 6.296875 -7.984375 5.851562 -8.125 5.28125 -8.125 C 4.757812 -8.125 4.378906 -8.015625 4.140625 -7.796875 C 3.910156 -7.578125 3.796875 -7.28125 3.796875 -6.90625 L 1.265625 -6.90625 C 1.265625 -7.332031 1.351562 -7.734375 1.53125 -8.109375 C 1.71875 -8.484375 1.988281 -8.8125 2.34375 -9.09375 C 2.707031 -9.375 3.144531 -9.597656 3.65625 -9.765625 C 4.164062 -9.929688 4.75 -10.015625 5.40625 -10.015625 C 6 -10.015625 6.550781 -9.941406 7.0625 -9.796875 C 7.582031 -9.648438 8.03125 -9.4375 8.40625 -9.15625 C 8.78125 -8.875 9.070312 -8.515625 9.28125 -8.078125 C 9.5 -7.648438 9.609375 -7.148438 9.609375 -6.578125 L 9.609375 -2.359375 C 9.609375 -1.828125 9.640625 -1.390625 9.703125 -1.046875 C 9.765625 -0.703125 9.863281 -0.40625 10 -0.15625 L 10 0 Z M 5.015625 -1.765625 C 5.273438 -1.765625 5.515625 -1.796875 5.734375 -1.859375 C 5.953125 -1.921875 6.144531 -2 6.3125 -2.09375 C 6.488281 -2.195312 6.640625 -2.3125 6.765625 -2.4375 C 6.898438 -2.5625 7.003906 -2.6875 7.078125 -2.8125 L 7.078125 -4.5 L 5.78125 -4.5 C 5.382812 -4.5 5.046875 -4.460938 4.765625 -4.390625 C 4.492188 -4.316406 4.269531 -4.207031 4.09375 -4.0625 C 3.914062 -3.925781 3.785156 -3.765625 3.703125 -3.578125 C 3.617188 -3.390625 3.578125 -3.179688 3.578125 -2.953125 C 3.578125 -2.617188 3.695312 -2.335938 3.9375 -2.109375 C 4.175781 -1.878906 4.535156 -1.765625 5.015625 -1.765625 Z M 5.015625 -1.765625 "/></g></g></g><g fill="#161718" fill-opacity="1"><g transform="translate(41.843038, 300.967245)"><g><path d="M 3.578125 -9.84375 L 3.734375 -8.46875 C 4.078125 -8.96875 4.5 -9.347656 5 -9.609375 C 5.507812 -9.878906 6.070312 -10.015625 6.6875 -10.015625 C 7.1875 -10.015625 7.640625 -9.941406 8.046875 -9.796875 C 8.460938 -9.648438 8.816406 -9.414062 9.109375 -9.09375 C 9.410156 -8.78125 9.644531 -8.375 9.8125 -7.875 C 9.976562 -7.375 10.0625 -6.769531 10.0625 -6.0625 L 10.0625 0 L 7.546875 0 L 7.546875 -6.015625 C 7.546875 -6.410156 7.5 -6.734375 7.40625 -6.984375 C 7.320312 -7.234375 7.195312 -7.429688 7.03125 -7.578125 C 6.863281 -7.722656 6.664062 -7.820312 6.4375 -7.875 C 6.207031 -7.9375 5.945312 -7.96875 5.65625 -7.96875 C 5.226562 -7.96875 4.859375 -7.878906 4.546875 -7.703125 C 4.242188 -7.535156 4 -7.300781 3.8125 -7 L 3.8125 0 L 1.28125 0 L 1.28125 -9.84375 Z M 3.578125 -9.84375 "/></g></g></g><g fill="#161718" fill-opacity="1"><g transform="translate(55.253819, 300.967245)"><g><path d="M 7.4375 0 C 7.375 -0.125 7.320312 -0.265625 7.28125 -0.421875 C 7.238281 -0.578125 7.203125 -0.742188 7.171875 -0.921875 C 7.023438 -0.765625 6.859375 -0.617188 6.671875 -0.484375 C 6.492188 -0.359375 6.296875 -0.242188 6.078125 -0.140625 C 5.859375 -0.0351562 5.613281 0.0390625 5.34375 0.09375 C 5.082031 0.15625 4.796875 0.1875 4.484375 0.1875 C 3.984375 0.1875 3.519531 0.113281 3.09375 -0.03125 C 2.675781 -0.175781 2.316406 -0.378906 2.015625 -0.640625 C 1.710938 -0.898438 1.472656 -1.210938 1.296875 -1.578125 C 1.128906 -1.941406 1.046875 -2.332031 1.046875 -2.75 C 1.046875 -3.789062 1.429688 -4.59375 2.203125 -5.15625 C 2.972656 -5.726562 4.128906 -6.015625 5.671875 -6.015625 L 7.078125 -6.015625 L 7.078125 -6.59375 C 7.078125 -7.0625 6.921875 -7.429688 6.609375 -7.703125 C 6.296875 -7.984375 5.851562 -8.125 5.28125 -8.125 C 4.757812 -8.125 4.378906 -8.015625 4.140625 -7.796875 C 3.910156 -7.578125 3.796875 -7.28125 3.796875 -6.90625 L 1.265625 -6.90625 C 1.265625 -7.332031 1.351562 -7.734375 1.53125 -8.109375 C 1.71875 -8.484375 1.988281 -8.8125 2.34375 -9.09375 C 2.707031 -9.375 3.144531 -9.597656 3.65625 -9.765625 C 4.164062 -9.929688 4.75 -10.015625 5.40625 -10.015625 C 6 -10.015625 6.550781 -9.941406 7.0625 -9.796875 C 7.582031 -9.648438 8.03125 -9.4375 8.40625 -9.15625 C 8.78125 -8.875 9.070312 -8.515625 9.28125 -8.078125 C 9.5 -7.648438 9.609375 -7.148438 9.609375 -6.578125 L 9.609375 -2.359375 C 9.609375 -1.828125 9.640625 -1.390625 9.703125 -1.046875 C 9.765625 -0.703125 9.863281 -0.40625 10 -0.15625 L 10 0 Z M 5.015625 -1.765625 C 5.273438 -1.765625 5.515625 -1.796875 5.734375 -1.859375 C 5.953125 -1.921875 6.144531 -2 6.3125 -2.09375 C 6.488281 -2.195312 6.640625 -2.3125 6.765625 -2.4375 C 6.898438 -2.5625 7.003906 -2.6875 7.078125 -2.8125 L 7.078125 -4.5 L 5.78125 -4.5 C 5.382812 -4.5 5.046875 -4.460938 4.765625 -4.390625 C 4.492188 -4.316406 4.269531 -4.207031 4.09375 -4.0625 C 3.914062 -3.925781 3.785156 -3.765625 3.703125 -3.578125 C 3.617188 -3.390625 3.578125 -3.179688 3.578125 -2.953125 C 3.578125 -2.617188 3.695312 -2.335938 3.9375 -2.109375 C 4.175781 -1.878906 4.535156 -1.765625 5.015625 -1.765625 Z M 5.015625 -1.765625 "/></g></g></g><g fill="#161718" fill-opacity="1"><g transform="translate(68.6646, 300.967245)"><g><path d="M 1.03125 -5 C 1.03125 -5.738281 1.117188 -6.414062 1.296875 -7.03125 C 1.484375 -7.65625 1.75 -8.1875 2.09375 -8.625 C 2.445312 -9.070312 2.867188 -9.414062 3.359375 -9.65625 C 3.847656 -9.894531 4.398438 -10.015625 5.015625 -10.015625 C 5.597656 -10.015625 6.09375 -9.914062 6.5 -9.71875 C 6.914062 -9.53125 7.269531 -9.257812 7.5625 -8.90625 L 7.65625 -9.84375 L 9.953125 -9.84375 L 9.953125 -0.3125 C 9.953125 0.351562 9.835938 0.945312 9.609375 1.46875 C 9.390625 1.988281 9.070312 2.425781 8.65625 2.78125 C 8.25 3.132812 7.757812 3.40625 7.1875 3.59375 C 6.613281 3.78125 5.984375 3.875 5.296875 3.875 C 4.992188 3.875 4.671875 3.84375 4.328125 3.78125 C 3.992188 3.71875 3.660156 3.625 3.328125 3.5 C 2.992188 3.375 2.675781 3.210938 2.375 3.015625 C 2.082031 2.816406 1.832031 2.582031 1.625 2.3125 L 2.75 0.765625 C 3.070312 1.128906 3.4375 1.40625 3.84375 1.59375 C 4.25 1.789062 4.691406 1.890625 5.171875 1.890625 C 5.878906 1.890625 6.429688 1.695312 6.828125 1.3125 C 7.222656 0.9375 7.421875 0.398438 7.421875 -0.296875 L 7.421875 -0.859375 C 7.117188 -0.523438 6.769531 -0.265625 6.375 -0.078125 C 5.976562 0.0976562 5.519531 0.1875 5 0.1875 C 4.382812 0.1875 3.832031 0.0625 3.34375 -0.1875 C 2.863281 -0.445312 2.445312 -0.796875 2.09375 -1.234375 C 1.75 -1.679688 1.484375 -2.207031 1.296875 -2.8125 C 1.117188 -3.425781 1.03125 -4.085938 1.03125 -4.796875 Z M 3.5625 -4.796875 C 3.5625 -4.390625 3.601562 -4.007812 3.6875 -3.65625 C 3.769531 -3.300781 3.894531 -2.988281 4.0625 -2.71875 C 4.226562 -2.457031 4.441406 -2.25 4.703125 -2.09375 C 4.972656 -1.945312 5.285156 -1.875 5.640625 -1.875 C 6.078125 -1.875 6.441406 -1.957031 6.734375 -2.125 C 7.023438 -2.289062 7.253906 -2.53125 7.421875 -2.84375 L 7.421875 -7 C 7.253906 -7.3125 7.023438 -7.550781 6.734375 -7.71875 C 6.441406 -7.882812 6.082031 -7.96875 5.65625 -7.96875 C 5.300781 -7.96875 4.992188 -7.890625 4.734375 -7.734375 C 4.472656 -7.578125 4.253906 -7.363281 4.078125 -7.09375 C 3.898438 -6.820312 3.769531 -6.503906 3.6875 -6.140625 C 3.601562 -5.785156 3.5625 -5.40625 3.5625 -5 Z M 3.5625 -4.796875 "/></g></g></g><g fill="#161718" fill-opacity="1"><g transform="translate(82.07538, 300.967245)"><g><path d="M 6.0625 0.1875 C 5.300781 0.1875 4.609375 0.0625 3.984375 -0.1875 C 3.367188 -0.4375 2.835938 -0.773438 2.390625 -1.203125 C 1.953125 -1.628906 1.613281 -2.128906 1.375 -2.703125 C 1.132812 -3.285156 1.015625 -3.910156 1.015625 -4.578125 L 1.015625 -4.9375 C 1.015625 -5.6875 1.132812 -6.375 1.375 -7 C 1.613281 -7.625 1.941406 -8.160156 2.359375 -8.609375 C 2.785156 -9.054688 3.289062 -9.398438 3.875 -9.640625 C 4.457031 -9.890625 5.09375 -10.015625 5.78125 -10.015625 C 6.488281 -10.015625 7.117188 -9.898438 7.671875 -9.671875 C 8.222656 -9.441406 8.691406 -9.113281 9.078125 -8.6875 C 9.460938 -8.257812 9.753906 -7.742188 9.953125 -7.140625 C 10.160156 -6.546875 10.265625 -5.890625 10.265625 -5.171875 L 10.265625 -4.09375 L 3.578125 -4.09375 C 3.628906 -3.757812 3.726562 -3.457031 3.875 -3.1875 C 4.019531 -2.914062 4.207031 -2.675781 4.4375 -2.46875 C 4.675781 -2.269531 4.941406 -2.113281 5.234375 -2 C 5.535156 -1.894531 5.863281 -1.84375 6.21875 -1.84375 C 6.457031 -1.84375 6.703125 -1.863281 6.953125 -1.90625 C 7.203125 -1.957031 7.4375 -2.03125 7.65625 -2.125 C 7.882812 -2.226562 8.09375 -2.347656 8.28125 -2.484375 C 8.476562 -2.617188 8.648438 -2.78125 8.796875 -2.96875 L 10.0625 -1.609375 C 9.90625 -1.378906 9.695312 -1.15625 9.4375 -0.9375 C 9.1875 -0.726562 8.890625 -0.539062 8.546875 -0.375 C 8.210938 -0.207031 7.832031 -0.0703125 7.40625 0.03125 C 6.988281 0.132812 6.539062 0.1875 6.0625 0.1875 Z M 5.75 -7.96875 C 5.46875 -7.96875 5.207031 -7.914062 4.96875 -7.8125 C 4.738281 -7.71875 4.53125 -7.578125 4.34375 -7.390625 C 4.164062 -7.203125 4.015625 -6.976562 3.890625 -6.71875 C 3.773438 -6.457031 3.6875 -6.164062 3.625 -5.84375 L 7.78125 -5.84375 L 7.78125 -6.046875 C 7.757812 -6.316406 7.703125 -6.566406 7.609375 -6.796875 C 7.523438 -7.035156 7.394531 -7.238281 7.21875 -7.40625 C 7.050781 -7.582031 6.84375 -7.71875 6.59375 -7.8125 C 6.351562 -7.914062 6.070312 -7.96875 5.75 -7.96875 Z M 5.75 -7.96875 "/></g></g></g><g fill="#161718" fill-opacity="1"><g transform="translate(95.486161, 300.967245)"><g><path d="M 8.34375 -10.015625 C 8.726562 -10.015625 9.082031 -9.988281 9.40625 -9.9375 C 9.726562 -9.894531 9.988281 -9.84375 10.1875 -9.78125 L 9.828125 -7.25 C 9.492188 -7.332031 9.148438 -7.394531 8.796875 -7.4375 C 8.453125 -7.476562 8.117188 -7.5 7.796875 -7.5 C 7.085938 -7.5 6.519531 -7.359375 6.09375 -7.078125 C 5.664062 -6.804688 5.347656 -6.414062 5.140625 -5.90625 L 5.140625 0 L 2.609375 0 L 2.609375 -9.84375 L 4.96875 -9.84375 L 5.078125 -8.234375 C 5.484375 -8.785156 5.960938 -9.21875 6.515625 -9.53125 C 7.078125 -9.851562 7.6875 -10.015625 8.34375 -10.015625 Z M 8.34375 -10.015625 "/></g></g></g><g fill="#161718" fill-opacity="1"><g transform="translate(108.896942, 300.967245)"><g><path d="M 6.453125 -0.203125 C 6.453125 0.140625 6.40625 0.492188 6.3125 0.859375 C 6.21875 1.222656 6.085938 1.570312 5.921875 1.90625 C 5.765625 2.25 5.570312 2.570312 5.34375 2.875 C 5.113281 3.1875 4.867188 3.457031 4.609375 3.6875 L 3.28125 3 C 3.394531 2.78125 3.5 2.554688 3.59375 2.328125 C 3.695312 2.109375 3.785156 1.875 3.859375 1.625 C 3.929688 1.375 3.988281 1.109375 4.03125 0.828125 C 4.070312 0.554688 4.09375 0.253906 4.09375 -0.078125 L 4.09375 -2.203125 L 6.46875 -2.203125 Z M 6.453125 -0.203125 "/></g></g></g><g fill="#161718" fill-opacity="1"><g transform="translate(122.307722, 300.967245)"><g/></g></g><g fill="#161718" fill-opacity="1"><g transform="translate(135.718503, 300.967245)"><g><path d="M 10.390625 -4.140625 C 10.347656 -3.472656 10.203125 -2.875 9.953125 -2.34375 C 9.703125 -1.8125 9.367188 -1.359375 8.953125 -0.984375 C 8.546875 -0.609375 8.054688 -0.316406 7.484375 -0.109375 C 6.921875 0.0859375 6.296875 0.1875 5.609375 0.1875 C 4.816406 0.1875 4.117188 0.046875 3.515625 -0.234375 C 2.910156 -0.523438 2.398438 -0.929688 1.984375 -1.453125 C 1.578125 -1.972656 1.265625 -2.59375 1.046875 -3.3125 C 0.828125 -4.039062 0.71875 -4.84375 0.71875 -5.71875 L 0.71875 -7.5 C 0.71875 -8.382812 0.832031 -9.1875 1.0625 -9.90625 C 1.289062 -10.632812 1.617188 -11.257812 2.046875 -11.78125 C 2.472656 -12.300781 2.988281 -12.707031 3.59375 -13 C 4.195312 -13.289062 4.875 -13.4375 5.625 -13.4375 C 6.351562 -13.4375 7 -13.332031 7.5625 -13.125 C 8.125 -12.914062 8.601562 -12.617188 9 -12.234375 C 9.40625 -11.859375 9.722656 -11.394531 9.953125 -10.84375 C 10.179688 -10.289062 10.328125 -9.664062 10.390625 -8.96875 L 7.84375 -8.96875 C 7.820312 -9.363281 7.765625 -9.707031 7.671875 -10 C 7.578125 -10.300781 7.441406 -10.550781 7.265625 -10.75 C 7.085938 -10.945312 6.863281 -11.09375 6.59375 -11.1875 C 6.320312 -11.289062 6 -11.34375 5.625 -11.34375 C 5.226562 -11.34375 4.882812 -11.257812 4.59375 -11.09375 C 4.300781 -10.925781 4.054688 -10.675781 3.859375 -10.34375 C 3.671875 -10.019531 3.53125 -9.617188 3.4375 -9.140625 C 3.351562 -8.671875 3.3125 -8.128906 3.3125 -7.515625 L 3.3125 -5.71875 C 3.3125 -4.414062 3.492188 -3.453125 3.859375 -2.828125 C 4.222656 -2.203125 4.804688 -1.890625 5.609375 -1.890625 C 6.273438 -1.890625 6.800781 -2.066406 7.1875 -2.421875 C 7.570312 -2.773438 7.785156 -3.347656 7.828125 -4.140625 Z M 10.390625 -4.140625 "/></g></g></g><g fill="#161718" fill-opacity="1"><g transform="translate(149.129283, 300.967245)"><g><path d="M 1.8125 -13.96875 L 7.3125 -13.96875 L 7.3125 -2.0625 L 10.125 -2.0625 L 10.125 0 L 1.8125 0 L 1.8125 -2.0625 L 4.75 -2.0625 L 4.75 -11.90625 L 1.8125 -11.90625 Z M 1.8125 -13.96875 "/></g></g></g><g fill="#161718" fill-opacity="1"><g transform="translate(162.540064, 300.967245)"><g><path d="M 0.9375 -5.015625 C 0.9375 -5.722656 1.039062 -6.378906 1.25 -6.984375 C 1.457031 -7.597656 1.757812 -8.128906 2.15625 -8.578125 C 2.550781 -9.035156 3.035156 -9.390625 3.609375 -9.640625 C 4.179688 -9.890625 4.835938 -10.015625 5.578125 -10.015625 C 6.316406 -10.015625 6.972656 -9.890625 7.546875 -9.640625 C 8.117188 -9.390625 8.601562 -9.035156 9 -8.578125 C 9.40625 -8.128906 9.707031 -7.597656 9.90625 -6.984375 C 10.113281 -6.378906 10.21875 -5.722656 10.21875 -5.015625 L 10.21875 -4.8125 C 10.21875 -4.09375 10.113281 -3.425781 9.90625 -2.8125 C 9.707031 -2.207031 9.410156 -1.679688 9.015625 -1.234375 C 8.617188 -0.785156 8.128906 -0.4375 7.546875 -0.1875 C 6.972656 0.0625 6.320312 0.1875 5.59375 0.1875 C 4.851562 0.1875 4.191406 0.0625 3.609375 -0.1875 C 3.035156 -0.4375 2.550781 -0.785156 2.15625 -1.234375 C 1.757812 -1.679688 1.457031 -2.207031 1.25 -2.8125 C 1.039062 -3.425781 0.9375 -4.09375 0.9375 -4.8125 Z M 3.46875 -4.8125 C 3.46875 -4.40625 3.503906 -4.019531 3.578125 -3.65625 C 3.660156 -3.300781 3.785156 -2.988281 3.953125 -2.71875 C 4.117188 -2.445312 4.335938 -2.234375 4.609375 -2.078125 C 4.878906 -1.921875 5.207031 -1.84375 5.59375 -1.84375 C 5.957031 -1.84375 6.273438 -1.921875 6.546875 -2.078125 C 6.816406 -2.234375 7.035156 -2.445312 7.203125 -2.71875 C 7.367188 -2.988281 7.488281 -3.300781 7.5625 -3.65625 C 7.644531 -4.019531 7.6875 -4.40625 7.6875 -4.8125 L 7.6875 -5.015625 C 7.6875 -5.410156 7.644531 -5.785156 7.5625 -6.140625 C 7.488281 -6.503906 7.367188 -6.820312 7.203125 -7.09375 C 7.035156 -7.363281 6.816406 -7.578125 6.546875 -7.734375 C 6.273438 -7.890625 5.953125 -7.96875 5.578125 -7.96875 C 5.203125 -7.96875 4.878906 -7.890625 4.609375 -7.734375 C 4.335938 -7.578125 4.117188 -7.363281 3.953125 -7.09375 C 3.785156 -6.820312 3.660156 -6.503906 3.578125 -6.140625 C 3.503906 -5.785156 3.46875 -5.410156 3.46875 -5.015625 Z M 3.46875 -4.8125 "/></g></g></g><g fill="#161718" fill-opacity="1"><g transform="translate(175.950845, 300.967245)"><g><path d="M 7.5625 -1.375 C 7.226562 -0.882812 6.820312 -0.5 6.34375 -0.21875 C 5.875 0.0507812 5.363281 0.1875 4.8125 0.1875 C 4.300781 0.1875 3.832031 0.109375 3.40625 -0.046875 C 2.988281 -0.203125 2.625 -0.453125 2.3125 -0.796875 C 2.007812 -1.140625 1.773438 -1.578125 1.609375 -2.109375 C 1.441406 -2.640625 1.359375 -3.273438 1.359375 -4.015625 L 1.359375 -9.84375 L 3.890625 -9.84375 L 3.890625 -4 C 3.890625 -3.601562 3.914062 -3.265625 3.96875 -2.984375 C 4.03125 -2.710938 4.125 -2.492188 4.25 -2.328125 C 4.382812 -2.160156 4.550781 -2.039062 4.75 -1.96875 C 4.957031 -1.894531 5.210938 -1.859375 5.515625 -1.859375 C 6.015625 -1.859375 6.421875 -1.953125 6.734375 -2.140625 C 7.054688 -2.335938 7.296875 -2.601562 7.453125 -2.9375 L 7.453125 -9.84375 L 10 -9.84375 L 10 0 L 7.703125 0 Z M 7.5625 -1.375 "/></g></g></g><g fill="#161718" fill-opacity="1"><g transform="translate(189.361625, 300.967245)"><g><path d="M 1.015625 -5 C 1.015625 -5.738281 1.097656 -6.414062 1.265625 -7.03125 C 1.441406 -7.65625 1.695312 -8.1875 2.03125 -8.625 C 2.363281 -9.070312 2.769531 -9.414062 3.25 -9.65625 C 3.726562 -9.894531 4.273438 -10.015625 4.890625 -10.015625 C 5.398438 -10.015625 5.847656 -9.921875 6.234375 -9.734375 C 6.628906 -9.554688 6.976562 -9.296875 7.28125 -8.953125 L 7.28125 -13.96875 L 9.828125 -13.96875 L 9.828125 0 L 7.546875 0 L 7.40625 -1.03125 C 7.101562 -0.644531 6.738281 -0.34375 6.3125 -0.125 C 5.894531 0.0820312 5.410156 0.1875 4.859375 0.1875 C 4.265625 0.1875 3.726562 0.0625 3.25 -0.1875 C 2.769531 -0.445312 2.363281 -0.796875 2.03125 -1.234375 C 1.707031 -1.679688 1.457031 -2.207031 1.28125 -2.8125 C 1.101562 -3.425781 1.015625 -4.085938 1.015625 -4.796875 Z M 3.546875 -4.796875 C 3.546875 -4.390625 3.578125 -4.007812 3.640625 -3.65625 C 3.710938 -3.300781 3.828125 -2.988281 3.984375 -2.71875 C 4.148438 -2.457031 4.351562 -2.25 4.59375 -2.09375 C 4.84375 -1.945312 5.148438 -1.875 5.515625 -1.875 C 5.953125 -1.875 6.3125 -1.96875 6.59375 -2.15625 C 6.882812 -2.34375 7.113281 -2.597656 7.28125 -2.921875 L 7.28125 -6.90625 C 7.113281 -7.238281 6.882812 -7.5 6.59375 -7.6875 C 6.3125 -7.875 5.957031 -7.96875 5.53125 -7.96875 C 5.175781 -7.96875 4.867188 -7.890625 4.609375 -7.734375 C 4.359375 -7.578125 4.15625 -7.363281 4 -7.09375 C 3.84375 -6.820312 3.726562 -6.503906 3.65625 -6.140625 C 3.582031 -5.785156 3.546875 -5.40625 3.546875 -5 Z M 3.546875 -4.796875 "/></g></g></g><g fill="#161718" fill-opacity="1"><g transform="translate(202.772406, 300.967245)"><g/></g></g><g fill="#161718" fill-opacity="1"><g transform="translate(216.183187, 300.967245)"><g><path d="M 0.6875 -3.375 C 0.6875 -3.769531 0.738281 -4.132812 0.84375 -4.46875 C 0.957031 -4.800781 1.117188 -5.113281 1.328125 -5.40625 C 1.535156 -5.695312 1.78125 -5.96875 2.0625 -6.21875 C 2.351562 -6.476562 2.675781 -6.726562 3.03125 -6.96875 C 2.675781 -7.507812 2.398438 -8.019531 2.203125 -8.5 C 2.003906 -8.988281 1.90625 -9.488281 1.90625 -10 C 1.90625 -10.519531 1.988281 -10.992188 2.15625 -11.421875 C 2.320312 -11.847656 2.5625 -12.207031 2.875 -12.5 C 3.1875 -12.800781 3.554688 -13.03125 3.984375 -13.1875 C 4.421875 -13.351562 4.910156 -13.4375 5.453125 -13.4375 C 5.910156 -13.4375 6.320312 -13.351562 6.6875 -13.1875 C 7.0625 -13.019531 7.378906 -12.796875 7.640625 -12.515625 C 7.910156 -12.234375 8.117188 -11.90625 8.265625 -11.53125 C 8.410156 -11.164062 8.484375 -10.78125 8.484375 -10.375 C 8.484375 -10.0625 8.429688 -9.765625 8.328125 -9.484375 C 8.234375 -9.210938 8.101562 -8.957031 7.9375 -8.71875 C 7.769531 -8.476562 7.570312 -8.253906 7.34375 -8.046875 C 7.113281 -7.835938 6.867188 -7.640625 6.609375 -7.453125 L 5.890625 -6.859375 L 8.125 -3.96875 C 8.320312 -4.320312 8.472656 -4.703125 8.578125 -5.109375 C 8.679688 -5.523438 8.734375 -5.96875 8.734375 -6.4375 L 10.90625 -6.4375 C 10.90625 -5.601562 10.789062 -4.828125 10.5625 -4.109375 C 10.34375 -3.390625 10 -2.75 9.53125 -2.1875 L 11.234375 0 L 8.34375 0 L 7.75 -0.75 C 7.289062 -0.445312 6.8125 -0.210938 6.3125 -0.046875 C 5.820312 0.109375 5.265625 0.1875 4.640625 0.1875 C 4.035156 0.1875 3.484375 0.0976562 2.984375 -0.078125 C 2.492188 -0.253906 2.078125 -0.5 1.734375 -0.8125 C 1.398438 -1.125 1.140625 -1.5 0.953125 -1.9375 C 0.773438 -2.375 0.6875 -2.851562 0.6875 -3.375 Z M 4.75 -1.84375 C 5.070312 -1.84375 5.382812 -1.882812 5.6875 -1.96875 C 5.988281 -2.050781 6.28125 -2.171875 6.5625 -2.328125 L 4.171875 -5.4375 L 4.09375 -5.390625 C 3.90625 -5.210938 3.753906 -5.035156 3.640625 -4.859375 C 3.523438 -4.691406 3.4375 -4.53125 3.375 -4.375 C 3.3125 -4.21875 3.269531 -4.066406 3.25 -3.921875 C 3.226562 -3.773438 3.21875 -3.640625 3.21875 -3.515625 C 3.21875 -3.273438 3.253906 -3.050781 3.328125 -2.84375 C 3.398438 -2.632812 3.503906 -2.457031 3.640625 -2.3125 C 3.773438 -2.164062 3.9375 -2.050781 4.125 -1.96875 C 4.3125 -1.882812 4.519531 -1.84375 4.75 -1.84375 Z M 4.203125 -10 C 4.203125 -9.726562 4.253906 -9.453125 4.359375 -9.171875 C 4.472656 -8.898438 4.628906 -8.609375 4.828125 -8.296875 L 5.671875 -8.9375 C 5.859375 -9.050781 6 -9.171875 6.09375 -9.296875 C 6.195312 -9.429688 6.265625 -9.554688 6.296875 -9.671875 C 6.335938 -9.796875 6.359375 -9.90625 6.359375 -10 C 6.359375 -10.09375 6.359375 -10.164062 6.359375 -10.21875 C 6.359375 -10.363281 6.335938 -10.503906 6.296875 -10.640625 C 6.253906 -10.785156 6.191406 -10.910156 6.109375 -11.015625 C 6.035156 -11.128906 5.941406 -11.21875 5.828125 -11.28125 C 5.722656 -11.351562 5.597656 -11.390625 5.453125 -11.390625 C 5.242188 -11.390625 5.0625 -11.351562 4.90625 -11.28125 C 4.75 -11.207031 4.617188 -11.101562 4.515625 -10.96875 C 4.410156 -10.84375 4.332031 -10.695312 4.28125 -10.53125 C 4.226562 -10.363281 4.203125 -10.1875 4.203125 -10 Z M 4.203125 -10 "/></g></g></g><g fill="#161718" fill-opacity="1"><g transform="translate(229.593967, 300.967245)"><g/></g></g><g fill="#161718" fill-opacity="1"><g transform="translate(243.004748, 300.967245)"><g><path d="M 1.140625 0 L 1.140625 -13.234375 L 4.5625 -13.234375 C 5.445312 -13.234375 6.242188 -13.082031 6.953125 -12.78125 C 7.660156 -12.488281 8.269531 -12.070312 8.78125 -11.53125 C 9.289062 -11 9.679688 -10.359375 9.953125 -9.609375 C 10.234375 -8.867188 10.375 -8.050781 10.375 -7.15625 L 10.375 -6.0625 C 10.375 -5.175781 10.234375 -4.359375 9.953125 -3.609375 C 9.679688 -2.867188 9.296875 -2.226562 8.796875 -1.6875 C 8.296875 -1.15625 7.695312 -0.738281 7 -0.4375 C 6.300781 -0.144531 5.53125 0 4.6875 0 Z M 3.703125 -11.171875 L 3.703125 -2.0625 L 4.6875 -2.0625 C 5.164062 -2.0625 5.59375 -2.148438 5.96875 -2.328125 C 6.351562 -2.503906 6.675781 -2.765625 6.9375 -3.109375 C 7.207031 -3.460938 7.410156 -3.882812 7.546875 -4.375 C 7.679688 -4.875 7.75 -5.4375 7.75 -6.0625 L 7.75 -7.171875 C 7.75 -7.765625 7.679688 -8.304688 7.546875 -8.796875 C 7.410156 -9.285156 7.207031 -9.703125 6.9375 -10.046875 C 6.664062 -10.398438 6.332031 -10.675781 5.9375 -10.875 C 5.539062 -11.070312 5.082031 -11.171875 4.5625 -11.171875 Z M 3.703125 -11.171875 "/></g></g></g><g fill="#161718" fill-opacity="1"><g transform="translate(256.415528, 300.967245)"><g><path d="M 6.0625 0.1875 C 5.300781 0.1875 4.609375 0.0625 3.984375 -0.1875 C 3.367188 -0.4375 2.835938 -0.773438 2.390625 -1.203125 C 1.953125 -1.628906 1.613281 -2.128906 1.375 -2.703125 C 1.132812 -3.285156 1.015625 -3.910156 1.015625 -4.578125 L 1.015625 -4.9375 C 1.015625 -5.6875 1.132812 -6.375 1.375 -7 C 1.613281 -7.625 1.941406 -8.160156 2.359375 -8.609375 C 2.785156 -9.054688 3.289062 -9.398438 3.875 -9.640625 C 4.457031 -9.890625 5.09375 -10.015625 5.78125 -10.015625 C 6.488281 -10.015625 7.117188 -9.898438 7.671875 -9.671875 C 8.222656 -9.441406 8.691406 -9.113281 9.078125 -8.6875 C 9.460938 -8.257812 9.753906 -7.742188 9.953125 -7.140625 C 10.160156 -6.546875 10.265625 -5.890625 10.265625 -5.171875 L 10.265625 -4.09375 L 3.578125 -4.09375 C 3.628906 -3.757812 3.726562 -3.457031 3.875 -3.1875 C 4.019531 -2.914062 4.207031 -2.675781 4.4375 -2.46875 C 4.675781 -2.269531 4.941406 -2.113281 5.234375 -2 C 5.535156 -1.894531 5.863281 -1.84375 6.21875 -1.84375 C 6.457031 -1.84375 6.703125 -1.863281 6.953125 -1.90625 C 7.203125 -1.957031 7.4375 -2.03125 7.65625 -2.125 C 7.882812 -2.226562 8.09375 -2.347656 8.28125 -2.484375 C 8.476562 -2.617188 8.648438 -2.78125 8.796875 -2.96875 L 10.0625 -1.609375 C 9.90625 -1.378906 9.695312 -1.15625 9.4375 -0.9375 C 9.1875 -0.726562 8.890625 -0.539062 8.546875 -0.375 C 8.210938 -0.207031 7.832031 -0.0703125 7.40625 0.03125 C 6.988281 0.132812 6.539062 0.1875 6.0625 0.1875 Z M 5.75 -7.96875 C 5.46875 -7.96875 5.207031 -7.914062 4.96875 -7.8125 C 4.738281 -7.71875 4.53125 -7.578125 4.34375 -7.390625 C 4.164062 -7.203125 4.015625 -6.976562 3.890625 -6.71875 C 3.773438 -6.457031 3.6875 -6.164062 3.625 -5.84375 L 7.78125 -5.84375 L 7.78125 -6.046875 C 7.757812 -6.316406 7.703125 -6.566406 7.609375 -6.796875 C 7.523438 -7.035156 7.394531 -7.238281 7.21875 -7.40625 C 7.050781 -7.582031 6.84375 -7.71875 6.59375 -7.8125 C 6.351562 -7.914062 6.070312 -7.96875 5.75 -7.96875 Z M 5.75 -7.96875 "/></g></g></g><g fill="#161718" fill-opacity="1"><g transform="translate(269.826309, 300.967245)"><g><path d="M 5.46875 -2.921875 L 5.59375 -2.203125 L 5.71875 -2.890625 L 7.890625 -9.84375 L 10.515625 -9.84375 L 6.78125 0 L 4.40625 0 L 0.65625 -9.84375 L 3.296875 -9.84375 Z M 5.46875 -2.921875 "/></g></g></g><g fill="#161718" fill-opacity="1"><g transform="translate(283.23709, 300.967245)"><g><path d="M 8.0625 -3.453125 C 8.0625 -3.691406 8.019531 -3.910156 7.9375 -4.109375 C 7.863281 -4.316406 7.726562 -4.507812 7.53125 -4.6875 C 7.332031 -4.875 7.070312 -5.039062 6.75 -5.1875 C 6.4375 -5.332031 6.039062 -5.472656 5.5625 -5.609375 C 4.988281 -5.765625 4.4375 -5.957031 3.90625 -6.1875 C 3.382812 -6.425781 2.921875 -6.710938 2.515625 -7.046875 C 2.117188 -7.378906 1.800781 -7.765625 1.5625 -8.203125 C 1.320312 -8.648438 1.203125 -9.160156 1.203125 -9.734375 C 1.203125 -10.296875 1.320312 -10.800781 1.5625 -11.25 C 1.800781 -11.707031 2.128906 -12.097656 2.546875 -12.421875 C 2.960938 -12.742188 3.457031 -12.988281 4.03125 -13.15625 C 4.601562 -13.332031 5.222656 -13.421875 5.890625 -13.421875 C 6.578125 -13.421875 7.207031 -13.320312 7.78125 -13.125 C 8.351562 -12.925781 8.84375 -12.644531 9.25 -12.28125 C 9.664062 -11.914062 9.988281 -11.484375 10.21875 -10.984375 C 10.445312 -10.492188 10.5625 -9.953125 10.5625 -9.359375 L 8.078125 -9.359375 C 8.066406 -9.648438 8.015625 -9.921875 7.921875 -10.171875 C 7.828125 -10.421875 7.6875 -10.632812 7.5 -10.8125 C 7.3125 -10.988281 7.078125 -11.128906 6.796875 -11.234375 C 6.523438 -11.335938 6.207031 -11.390625 5.84375 -11.390625 C 5.5 -11.390625 5.191406 -11.347656 4.921875 -11.265625 C 4.660156 -11.179688 4.441406 -11.0625 4.265625 -10.90625 C 4.085938 -10.757812 3.945312 -10.582031 3.84375 -10.375 C 3.75 -10.175781 3.703125 -9.960938 3.703125 -9.734375 C 3.703125 -9.484375 3.765625 -9.253906 3.890625 -9.046875 C 4.015625 -8.847656 4.195312 -8.671875 4.4375 -8.515625 C 4.675781 -8.359375 4.960938 -8.210938 5.296875 -8.078125 C 5.628906 -7.941406 6.007812 -7.816406 6.4375 -7.703125 C 7.039062 -7.523438 7.597656 -7.304688 8.109375 -7.046875 C 8.617188 -6.796875 9.054688 -6.492188 9.421875 -6.140625 C 9.785156 -5.796875 10.066406 -5.398438 10.265625 -4.953125 C 10.472656 -4.515625 10.578125 -4.019531 10.578125 -3.46875 C 10.578125 -2.882812 10.460938 -2.367188 10.234375 -1.921875 C 10.003906 -1.472656 9.679688 -1.09375 9.265625 -0.78125 C 8.859375 -0.46875 8.367188 -0.226562 7.796875 -0.0625 C 7.222656 0.09375 6.597656 0.171875 5.921875 0.171875 C 5.503906 0.171875 5.085938 0.132812 4.671875 0.0625 C 4.265625 -0.0078125 3.867188 -0.125 3.484375 -0.28125 C 3.109375 -0.445312 2.753906 -0.644531 2.421875 -0.875 C 2.097656 -1.113281 1.816406 -1.390625 1.578125 -1.703125 C 1.335938 -2.023438 1.148438 -2.382812 1.015625 -2.78125 C 0.878906 -3.1875 0.8125 -3.628906 0.8125 -4.109375 L 3.3125 -4.109375 C 3.332031 -3.710938 3.40625 -3.367188 3.53125 -3.078125 C 3.65625 -2.796875 3.832031 -2.5625 4.0625 -2.375 C 4.289062 -2.195312 4.5625 -2.066406 4.875 -1.984375 C 5.195312 -1.898438 5.546875 -1.859375 5.921875 -1.859375 C 6.265625 -1.859375 6.566406 -1.894531 6.828125 -1.96875 C 7.097656 -2.050781 7.320312 -2.160156 7.5 -2.296875 C 7.6875 -2.441406 7.828125 -2.609375 7.921875 -2.796875 C 8.015625 -2.992188 8.0625 -3.210938 8.0625 -3.453125 Z M 8.0625 -3.453125 "/></g></g></g><g fill="#161718" fill-opacity="1"><g transform="translate(296.64787, 300.967245)"><g><path d="M 6.0625 0.1875 C 5.300781 0.1875 4.609375 0.0625 3.984375 -0.1875 C 3.367188 -0.4375 2.835938 -0.773438 2.390625 -1.203125 C 1.953125 -1.628906 1.613281 -2.128906 1.375 -2.703125 C 1.132812 -3.285156 1.015625 -3.910156 1.015625 -4.578125 L 1.015625 -4.9375 C 1.015625 -5.6875 1.132812 -6.375 1.375 -7 C 1.613281 -7.625 1.941406 -8.160156 2.359375 -8.609375 C 2.785156 -9.054688 3.289062 -9.398438 3.875 -9.640625 C 4.457031 -9.890625 5.09375 -10.015625 5.78125 -10.015625 C 6.488281 -10.015625 7.117188 -9.898438 7.671875 -9.671875 C 8.222656 -9.441406 8.691406 -9.113281 9.078125 -8.6875 C 9.460938 -8.257812 9.753906 -7.742188 9.953125 -7.140625 C 10.160156 -6.546875 10.265625 -5.890625 10.265625 -5.171875 L 10.265625 -4.09375 L 3.578125 -4.09375 C 3.628906 -3.757812 3.726562 -3.457031 3.875 -3.1875 C 4.019531 -2.914062 4.207031 -2.675781 4.4375 -2.46875 C 4.675781 -2.269531 4.941406 -2.113281 5.234375 -2 C 5.535156 -1.894531 5.863281 -1.84375 6.21875 -1.84375 C 6.457031 -1.84375 6.703125 -1.863281 6.953125 -1.90625 C 7.203125 -1.957031 7.4375 -2.03125 7.65625 -2.125 C 7.882812 -2.226562 8.09375 -2.347656 8.28125 -2.484375 C 8.476562 -2.617188 8.648438 -2.78125 8.796875 -2.96875 L 10.0625 -1.609375 C 9.90625 -1.378906 9.695312 -1.15625 9.4375 -0.9375 C 9.1875 -0.726562 8.890625 -0.539062 8.546875 -0.375 C 8.210938 -0.207031 7.832031 -0.0703125 7.40625 0.03125 C 6.988281 0.132812 6.539062 0.1875 6.0625 0.1875 Z M 5.75 -7.96875 C 5.46875 -7.96875 5.207031 -7.914062 4.96875 -7.8125 C 4.738281 -7.71875 4.53125 -7.578125 4.34375 -7.390625 C 4.164062 -7.203125 4.015625 -6.976562 3.890625 -6.71875 C 3.773438 -6.457031 3.6875 -6.164062 3.625 -5.84375 L 7.78125 -5.84375 L 7.78125 -6.046875 C 7.757812 -6.316406 7.703125 -6.566406 7.609375 -6.796875 C 7.523438 -7.035156 7.394531 -7.238281 7.21875 -7.40625 C 7.050781 -7.582031 6.84375 -7.71875 6.59375 -7.8125 C 6.351562 -7.914062 6.070312 -7.96875 5.75 -7.96875 Z M 5.75 -7.96875 "/></g></g></g><g fill="#161718" fill-opacity="1"><g transform="translate(310.058651, 300.967245)"><g><path d="M 5.640625 -1.84375 C 5.890625 -1.84375 6.125 -1.878906 6.34375 -1.953125 C 6.570312 -2.023438 6.769531 -2.125 6.9375 -2.25 C 7.101562 -2.382812 7.234375 -2.546875 7.328125 -2.734375 C 7.421875 -2.921875 7.460938 -3.128906 7.453125 -3.359375 L 9.84375 -3.359375 C 9.851562 -2.847656 9.742188 -2.375 9.515625 -1.9375 C 9.296875 -1.507812 8.992188 -1.132812 8.609375 -0.8125 C 8.234375 -0.5 7.789062 -0.253906 7.28125 -0.078125 C 6.78125 0.0976562 6.25 0.1875 5.6875 0.1875 C 4.914062 0.1875 4.242188 0.0625 3.671875 -0.1875 C 3.097656 -0.445312 2.617188 -0.800781 2.234375 -1.25 C 1.847656 -1.695312 1.554688 -2.222656 1.359375 -2.828125 C 1.160156 -3.429688 1.0625 -4.082031 1.0625 -4.78125 L 1.0625 -5.046875 C 1.0625 -5.734375 1.15625 -6.378906 1.34375 -6.984375 C 1.539062 -7.585938 1.832031 -8.113281 2.21875 -8.5625 C 2.613281 -9.007812 3.097656 -9.363281 3.671875 -9.625 C 4.242188 -9.882812 4.910156 -10.015625 5.671875 -10.015625 C 6.273438 -10.015625 6.832031 -9.921875 7.34375 -9.734375 C 7.863281 -9.554688 8.304688 -9.300781 8.671875 -8.96875 C 9.046875 -8.644531 9.335938 -8.25 9.546875 -7.78125 C 9.753906 -7.3125 9.851562 -6.785156 9.84375 -6.203125 L 7.453125 -6.203125 C 7.460938 -6.441406 7.425781 -6.671875 7.34375 -6.890625 C 7.257812 -7.109375 7.132812 -7.296875 6.96875 -7.453125 C 6.8125 -7.609375 6.613281 -7.734375 6.375 -7.828125 C 6.144531 -7.921875 5.894531 -7.96875 5.625 -7.96875 C 5.226562 -7.96875 4.898438 -7.882812 4.640625 -7.71875 C 4.378906 -7.5625 4.171875 -7.347656 4.015625 -7.078125 C 3.859375 -6.804688 3.75 -6.492188 3.6875 -6.140625 C 3.625 -5.785156 3.59375 -5.421875 3.59375 -5.046875 L 3.59375 -4.78125 C 3.59375 -4.394531 3.625 -4.023438 3.6875 -3.671875 C 3.75 -3.316406 3.851562 -3.003906 4 -2.734375 C 4.15625 -2.460938 4.363281 -2.242188 4.625 -2.078125 C 4.894531 -1.921875 5.234375 -1.84375 5.640625 -1.84375 Z M 5.640625 -1.84375 "/></g></g></g><g fill="#161718" fill-opacity="1"><g transform="translate(323.469431, 300.967245)"><g><path d="M 10.4375 -5.640625 C 10.4375 -4.796875 10.320312 -4.015625 10.09375 -3.296875 C 9.875 -2.585938 9.550781 -1.972656 9.125 -1.453125 C 8.695312 -0.941406 8.175781 -0.539062 7.5625 -0.25 C 6.957031 0.0390625 6.273438 0.1875 5.515625 0.1875 C 4.742188 0.1875 4.0625 0.0390625 3.46875 -0.25 C 2.875 -0.539062 2.375 -0.941406 1.96875 -1.453125 C 1.5625 -1.972656 1.253906 -2.585938 1.046875 -3.296875 C 0.835938 -4.015625 0.734375 -4.796875 0.734375 -5.640625 L 0.734375 -7.578125 C 0.734375 -8.421875 0.835938 -9.203125 1.046875 -9.921875 C 1.253906 -10.640625 1.5625 -11.253906 1.96875 -11.765625 C 2.375 -12.285156 2.875 -12.691406 3.46875 -12.984375 C 4.0625 -13.273438 4.738281 -13.421875 5.5 -13.421875 C 6.269531 -13.421875 6.957031 -13.273438 7.5625 -12.984375 C 8.175781 -12.691406 8.695312 -12.285156 9.125 -11.765625 C 9.550781 -11.253906 9.875 -10.640625 10.09375 -9.921875 C 10.320312 -9.203125 10.4375 -8.421875 10.4375 -7.578125 Z M 7.84375 -7.59375 C 7.84375 -8.132812 7.796875 -8.628906 7.703125 -9.078125 C 7.617188 -9.535156 7.484375 -9.925781 7.296875 -10.25 C 7.109375 -10.582031 6.863281 -10.835938 6.5625 -11.015625 C 6.269531 -11.203125 5.914062 -11.296875 5.5 -11.296875 C 5.09375 -11.296875 4.75 -11.203125 4.46875 -11.015625 C 4.1875 -10.835938 3.957031 -10.582031 3.78125 -10.25 C 3.613281 -9.925781 3.492188 -9.535156 3.421875 -9.078125 C 3.347656 -8.628906 3.3125 -8.132812 3.3125 -7.59375 L 3.3125 -5.640625 C 3.3125 -5.109375 3.347656 -4.613281 3.421875 -4.15625 C 3.492188 -3.707031 3.613281 -3.316406 3.78125 -2.984375 C 3.957031 -2.648438 4.1875 -2.390625 4.46875 -2.203125 C 4.75 -2.015625 5.097656 -1.921875 5.515625 -1.921875 C 5.921875 -1.921875 6.269531 -2.015625 6.5625 -2.203125 C 6.863281 -2.390625 7.101562 -2.644531 7.28125 -2.96875 C 7.46875 -3.300781 7.609375 -3.695312 7.703125 -4.15625 C 7.796875 -4.613281 7.84375 -5.109375 7.84375 -5.640625 Z M 7.84375 -7.59375 "/></g></g></g><g fill="#161718" fill-opacity="1"><g transform="translate(336.880212, 300.967245)"><g><path d="M 10.125 -4.828125 C 10.125 -4.109375 10.039062 -3.441406 9.875 -2.828125 C 9.707031 -2.222656 9.460938 -1.695312 9.140625 -1.25 C 8.816406 -0.800781 8.414062 -0.445312 7.9375 -0.1875 C 7.457031 0.0625 6.90625 0.1875 6.28125 0.1875 C 5.757812 0.1875 5.296875 0.0976562 4.890625 -0.078125 C 4.492188 -0.265625 4.144531 -0.523438 3.84375 -0.859375 L 3.84375 3.78125 L 1.3125 3.78125 L 1.3125 -9.84375 L 3.65625 -9.84375 L 3.75 -8.875 C 4.050781 -9.238281 4.40625 -9.519531 4.8125 -9.71875 C 5.226562 -9.914062 5.710938 -10.015625 6.265625 -10.015625 C 6.890625 -10.015625 7.441406 -9.894531 7.921875 -9.65625 C 8.398438 -9.414062 8.800781 -9.078125 9.125 -8.640625 C 9.457031 -8.203125 9.707031 -7.675781 9.875 -7.0625 C 10.039062 -6.445312 10.125 -5.765625 10.125 -5.015625 Z M 7.59375 -5.015625 C 7.59375 -5.429688 7.550781 -5.816406 7.46875 -6.171875 C 7.394531 -6.535156 7.28125 -6.847656 7.125 -7.109375 C 6.96875 -7.378906 6.757812 -7.585938 6.5 -7.734375 C 6.25 -7.890625 5.945312 -7.96875 5.59375 -7.96875 C 5.144531 -7.96875 4.78125 -7.878906 4.5 -7.703125 C 4.21875 -7.535156 4 -7.289062 3.84375 -6.96875 L 3.84375 -2.859375 C 4 -2.554688 4.21875 -2.3125 4.5 -2.125 C 4.78125 -1.9375 5.148438 -1.84375 5.609375 -1.84375 C 5.960938 -1.84375 6.265625 -1.921875 6.515625 -2.078125 C 6.773438 -2.234375 6.984375 -2.445312 7.140625 -2.71875 C 7.296875 -3 7.410156 -3.316406 7.484375 -3.671875 C 7.554688 -4.035156 7.59375 -4.421875 7.59375 -4.828125 Z M 7.59375 -5.015625 "/></g></g></g><g fill="#161718" fill-opacity="1"><g transform="translate(350.290993, 300.967245)"><g><path d="M 7.625 -2.703125 C 7.625 -2.847656 7.585938 -2.976562 7.515625 -3.09375 C 7.453125 -3.21875 7.332031 -3.328125 7.15625 -3.421875 C 6.976562 -3.523438 6.738281 -3.617188 6.4375 -3.703125 C 6.144531 -3.785156 5.769531 -3.867188 5.3125 -3.953125 C 4.738281 -4.066406 4.210938 -4.207031 3.734375 -4.375 C 3.253906 -4.550781 2.84375 -4.765625 2.5 -5.015625 C 2.164062 -5.265625 1.898438 -5.546875 1.703125 -5.859375 C 1.515625 -6.179688 1.421875 -6.550781 1.421875 -6.96875 C 1.421875 -7.375 1.519531 -7.757812 1.71875 -8.125 C 1.914062 -8.5 2.191406 -8.828125 2.546875 -9.109375 C 2.910156 -9.390625 3.351562 -9.609375 3.875 -9.765625 C 4.40625 -9.929688 4.992188 -10.015625 5.640625 -10.015625 C 6.328125 -10.015625 6.941406 -9.9375 7.484375 -9.78125 C 8.035156 -9.625 8.5 -9.398438 8.875 -9.109375 C 9.257812 -8.828125 9.550781 -8.492188 9.75 -8.109375 C 9.945312 -7.722656 10.046875 -7.300781 10.046875 -6.84375 L 7.515625 -6.84375 C 7.515625 -7.226562 7.359375 -7.546875 7.046875 -7.796875 C 6.742188 -8.054688 6.273438 -8.1875 5.640625 -8.1875 C 5.054688 -8.1875 4.613281 -8.082031 4.3125 -7.875 C 4.007812 -7.664062 3.859375 -7.40625 3.859375 -7.09375 C 3.859375 -6.945312 3.890625 -6.8125 3.953125 -6.6875 C 4.015625 -6.5625 4.125 -6.445312 4.28125 -6.34375 C 4.4375 -6.25 4.644531 -6.160156 4.90625 -6.078125 C 5.175781 -5.992188 5.515625 -5.921875 5.921875 -5.859375 C 6.523438 -5.765625 7.078125 -5.640625 7.578125 -5.484375 C 8.085938 -5.335938 8.523438 -5.144531 8.890625 -4.90625 C 9.265625 -4.664062 9.554688 -4.375 9.765625 -4.03125 C 9.972656 -3.6875 10.078125 -3.28125 10.078125 -2.8125 C 10.078125 -2.375 9.972656 -1.972656 9.765625 -1.609375 C 9.554688 -1.242188 9.257812 -0.925781 8.875 -0.65625 C 8.488281 -0.382812 8.023438 -0.175781 7.484375 -0.03125 C 6.941406 0.113281 6.332031 0.1875 5.65625 0.1875 C 4.914062 0.1875 4.257812 0.09375 3.6875 -0.09375 C 3.125 -0.289062 2.648438 -0.546875 2.265625 -0.859375 C 1.890625 -1.171875 1.601562 -1.523438 1.40625 -1.921875 C 1.207031 -2.316406 1.109375 -2.71875 1.109375 -3.125 L 3.515625 -3.125 C 3.535156 -2.851562 3.609375 -2.617188 3.734375 -2.421875 C 3.859375 -2.234375 4.019531 -2.082031 4.21875 -1.96875 C 4.425781 -1.851562 4.65625 -1.765625 4.90625 -1.703125 C 5.164062 -1.648438 5.4375 -1.625 5.71875 -1.625 C 6.332031 -1.625 6.800781 -1.722656 7.125 -1.921875 C 7.457031 -2.128906 7.625 -2.390625 7.625 -2.703125 Z M 7.625 -2.703125 "/></g></g></g></svg>